REM DIRINDEX 1\2,1\3,1\4,1\5,1\6
REM DIRNAME cjc129,folder01,folder02,folder03,folder04,folder05
TITLE ""
FILE "DISC2Track23.mp3" MP3
  TRACK 01 AUDIO
    TITLE "0:"
    INDEX 01 00:00:00
  TRACK 02 AUDIO
    TITLE "3:cjc129_1632"
    INDEX 01 00:00:07
  TRACK 03 AUDIO
    TITLE "0:"
    INDEX 01 00:01:26
  TRACK 04 AUDIO
    TITLE "5:cjc129_1633"
    INDEX 01 00:02:67
  TRACK 05 AUDIO
    TITLE "0:"
    INDEX 01 00:04:27
  TRACK 06 AUDIO
    TITLE "4:cjc129_1634"
    INDEX 01 00:05:20
  TRACK 07 AUDIO
    TITLE "0:"
    INDEX 01 00:06:39
  TRACK 08 AUDIO
    TITLE "6:cjc129_1635"
    INDEX 01 00:06:69
  TRACK 09 AUDIO
    TITLE "0:"
    INDEX 01 00:12:03
  TRACK 10 AUDIO
    TITLE "3:cjc129_1636"
    INDEX 01 00:13:53
  TRACK 11 AUDIO
    TITLE "0:"
    INDEX 01 00:14:72
  TRACK 12 AUDIO
    TITLE "5:cjc129_1637"
    INDEX 01 00:16:28
  TRACK 13 AUDIO
    TITLE "0:"
    INDEX 01 00:18:23
  TRACK 14 AUDIO
    TITLE "4:cjc129_1638"
    INDEX 01 00:19:11
  TRACK 15 AUDIO
    TITLE "0:"
    INDEX 01 00:20:28
  TRACK 16 AUDIO
    TITLE "6:cjc129_1639"
    INDEX 01 00:20:59
  TRACK 17 AUDIO
    TITLE "0:"
    INDEX 01 00:26:69
  TRACK 18 AUDIO
    TITLE "3:cjc129_1640"
    INDEX 01 00:28:45
  TRACK 19 AUDIO
    TITLE "0:"
    INDEX 01 00:29:62
  TRACK 20 AUDIO
    TITLE "5:cjc129_1641"
    INDEX 01 00:31:33
  TRACK 21 AUDIO
    TITLE "0:"
    INDEX 01 00:33:44
  TRACK 22 AUDIO
    TITLE "4:cjc129_1642"
    INDEX 01 00:34:34
  TRACK 23 AUDIO
    TITLE "0:"
    INDEX 01 00:35:51
  TRACK 24 AUDIO
    TITLE "6:cjc129_1643"
    INDEX 01 00:36:09
  TRACK 25 AUDIO
    TITLE "0:"
    INDEX 01 00:40:46
  TRACK 26 AUDIO
    TITLE "3:cjc129_1644"
    INDEX 01 00:42:23
  TRACK 27 AUDIO
    TITLE "0:"
    INDEX 01 00:43:40
  TRACK 28 AUDIO
    TITLE "5:cjc129_1645"
    INDEX 01 00:44:69
  TRACK 29 AUDIO
    TITLE "0:"
    INDEX 01 00:46:66
  TRACK 30 AUDIO
    TITLE "4:cjc129_1646"
    INDEX 01 00:47:60
  TRACK 31 AUDIO
    TITLE "0:"
    INDEX 01 00:49:02
  TRACK 32 AUDIO
    TITLE "6:cjc129_1647"
    INDEX 01 00:49:31
  TRACK 33 AUDIO
    TITLE "0:"
    INDEX 01 00:53:64
  TRACK 34 AUDIO
    TITLE "3:cjc129_1648"
    INDEX 01 00:55:38
  TRACK 35 AUDIO
    TITLE "0:"
    INDEX 01 00:56:61
  TRACK 36 AUDIO
    TITLE "5:cjc129_1649"
    INDEX 01 00:58:30
  TRACK 37 AUDIO
    TITLE "0:"
    INDEX 01 01:04:43
  TRACK 38 AUDIO
    TITLE "4:cjc129_1650"
    INDEX 01 01:05:34
  TRACK 39 AUDIO
    TITLE "0:"
    INDEX 01 01:06:57
  TRACK 40 AUDIO
    TITLE "6:cjc129_1651"
    INDEX 01 01:07:14
  TRACK 41 AUDIO
    TITLE "0:"
    INDEX 01 01:12:26
  TRACK 42 AUDIO
    TITLE "3:cjc129_1652"
    INDEX 01 01:14:04
  TRACK 43 AUDIO
    TITLE "0:"
    INDEX 01 01:15:25
  TRACK 44 AUDIO
    TITLE "5:cjc129_1653"
    INDEX 01 01:16:56
  TRACK 45 AUDIO
    TITLE "0:"
    INDEX 01 01:20:40
  TRACK 46 AUDIO
    TITLE "4:cjc129_1654"
    INDEX 01 01:21:31
  TRACK 47 AUDIO
    TITLE "0:"
    INDEX 01 01:22:54
  TRACK 48 AUDIO
    TITLE "6:cjc129_1655"
    INDEX 01 01:23:11
  TRACK 49 AUDIO
    TITLE "0:"
    INDEX 01 01:26:70
  TRACK 50 AUDIO
    TITLE "3:cjc129_1656"
    INDEX 01 01:28:45
  TRACK 51 AUDIO
    TITLE "0:"
    INDEX 01 01:29:60
  TRACK 52 AUDIO
    TITLE "5:cjc129_1657"
    INDEX 01 01:31:28
  TRACK 53 AUDIO
    TITLE "0:"
    INDEX 01 01:36:03
  TRACK 54 AUDIO
    TITLE "4:cjc129_1658"
    INDEX 01 01:36:68
  TRACK 55 AUDIO
    TITLE "0:"
    INDEX 01 01:38:10
  TRACK 56 AUDIO
    TITLE "6:cjc129_1659"
    INDEX 01 01:38:40
  TRACK 57 AUDIO
    TITLE "0:"
    INDEX 01 01:42:49
  TRACK 58 AUDIO
    TITLE "3:cjc129_1660"
    INDEX 01 01:44:23
  TRACK 59 AUDIO
    TITLE "0:"
    INDEX 01 01:45:38
  TRACK 60 AUDIO
    TITLE "5:cjc129_1661"
    INDEX 01 01:46:68
  TRACK 61 AUDIO
    TITLE "0:"
    INDEX 01 01:51:17
  TRACK 62 AUDIO
    TITLE "4:cjc129_1662"
    INDEX 01 01:52:08
  TRACK 63 AUDIO
    TITLE "0:"
    INDEX 01 01:53:23
  TRACK 64 AUDIO
    TITLE "6:cjc129_1663"
    INDEX 01 01:53:53
  TRACK 65 AUDIO
    TITLE "0:"
    INDEX 01 01:58:40
